<?xml version="1.0" standalone="no"?>
<!DOCTYPE svg PUBLIC "-//W3C//DTD SVG 20010904//EN"
 "http://www.w3.org/TR/2001/REC-SVG-20010904/DTD/svg10.dtd">
<svg version="1.0" xmlns="http://www.w3.org/2000/svg"
 width="1024.000000pt" height="1024.000000pt" viewBox="0 0 1024.000000 1024.000000"
 preserveAspectRatio="xMidYMid meet">

<g transform="translate(0.000000,1024.000000) scale(0.100000,-0.100000)" fill="currentColor" stroke="currentColor">
<path d="M2812 7969 c-45 -13 -114 -85 -131 -134 -19 -56 -26 -321 -12 -463
33 -325 110 -687 197 -918 19 -50 34 -94 34 -96 0 -3 -23 -43 -51 -89 -276
-457 -424 -1017 -406 -1544 22 -640 234 -1226 618 -1710 461 -582 1234 -971
2009 -1010 554 -29 1221 172 1689 507 627 450 1019 1105 1138 1905 25 167 24
625 0 768 -74 423 -184 735 -379 1074 l-60 103 46 142 c123 376 186 737 186
1063 0 204 -9 261 -49 325 -73 115 -217 109 -536 -19 -250 -101 -494 -230
-715 -378 l-137 -91 -94 39 c-216 87 -416 143 -645 178 -109 17 -183 22 -344
22 -184 0 -223 -4 -380 -31 -96 -17 -230 -47 -297 -66 -114 -34 -344 -115
-382 -136 -14 -7 -35 3 -92 44 -266 188 -677 400 -941 487 -100 32 -213 45
-266 28z m2513 -619 c192 -16 176 -8 244 -119 172 -280 323 -687 396 -1065 23
-117 45 -302 38 -310 -2 -1 -33 13 -71 31 -123 61 -172 65 -801 60 -595 -4
-592 -4 -717 -57 -26 -11 -49 -18 -51 -16 -10 10 49 352 88 507 58 236 125
426 226 639 46 97 135 246 170 287 28 32 29 33 153 41 177 13 191 13 325 2z
m-845 -124 c0 -3 -16 -33 -36 -67 -88 -149 -199 -427 -258 -641 -29 -104 -68
-298 -91 -440 -3 -21 -9 -38 -13 -38 -4 0 -48 11 -98 25 -117 32 -238 81 -377
152 -119 61 -317 187 -317 202 0 20 285 303 385 382 187 149 455 301 686 389
105 39 119 44 119 36z m1475 -25 c239 -89 516 -237 687 -367 171 -129 428
-380 428 -418 0 -29 -294 -200 -465 -271 -91 -38 -298 -105 -326 -105 -3 0
-12 37 -18 83 -42 294 -165 691 -292 945 -42 83 -73 152 -70 152 3 0 29 -8 56
-19z m-2777 -1070 c57 -45 205 -132 337 -199 167 -83 423 -173 618 -216 l28
-7 -39 -44 c-48 -54 -104 -159 -129 -240 -17 -55 -18 -104 -18 -610 l0 -550
28 -80 c16 -44 50 -112 76 -152 l48 -71 -87 -21 c-188 -46 -330 -100 -530
-201 -154 -79 -308 -175 -362 -227 -20 -19 -41 -33 -46 -29 -15 9 -115 191
-150 271 -113 259 -190 569 -207 825 l-7 105 436 -3 c489 -3 484 -4 532 67 48
72 21 165 -59 201 -39 18 -70 20 -472 20 l-431 0 8 88 c26 300 110 595 253
887 83 169 110 215 125 215 6 0 28 -13 48 -29z m4090 -13 c12 -24 38 -70 57
-103 138 -239 259 -643 290 -972 l7 -73 -413 0 c-249 0 -432 -5 -459 -11 -110
-25 -152 -138 -82 -221 49 -58 51 -58 522 -58 l430 0 0 -22 c0 -13 -5 -72 -10
-132 -28 -296 -137 -664 -269 -908 -78 -145 -70 -139 -128 -99 -207 147 -336
218 -573 314 -74 31 -196 72 -270 92 -74 20 -136 38 -138 40 -2 2 7 19 21 37
32 42 79 137 103 208 18 51 19 92 19 600 0 544 0 545 -23 620 -29 92 -58 149
-111 219 -23 30 -41 57 -41 60 0 3 46 16 103 28 271 59 603 202 822 352 55 38
105 70 111 70 5 1 20 -18 32 -41z m-1516 -459 c182 -38 319 -178 348 -355 6
-33 10 -255 10 -494 0 -480 -2 -500 -62 -612 -42 -79 -146 -176 -223 -208
l-60 -25 -569 -3 c-502 -2 -575 -1 -624 14 -148 43 -268 159 -313 305 -18 56
-19 98 -19 528 0 514 2 530 62 643 37 69 103 126 198 172 l65 31 520 5 c286 3
541 7 567 8 26 1 71 -3 100 -9z m253 -1926 c-51 -360 -121 -639 -227 -903 -81
-200 -218 -460 -265 -502 -33 -30 -276 -45 -466 -29 -85 6 -164 15 -175 18
-22 5 -77 87 -155 233 -109 204 -238 554 -290 790 -29 129 -73 417 -65 425 3
3 25 -6 49 -20 101 -56 122 -57 759 -58 640 0 643 0 766 58 38 18 70 34 72 34
2 1 0 -20 -3 -46z m-1910 -125 c3 -18 12 -80 20 -138 44 -301 146 -622 290
-911 36 -72 63 -134 60 -138 -12 -11 -198 61 -350 134 -258 125 -444 255 -639
444 -117 114 -216 224 -216 240 0 9 176 131 254 175 136 79 327 163 456 202
105 32 118 31 125 -8z m2365 -20 c154 -53 401 -173 522 -255 54 -36 103 -72
109 -79 16 -20 -18 -62 -176 -219 -207 -208 -430 -369 -669 -485 -138 -67
-330 -139 -341 -128 -3 3 12 34 34 69 42 67 111 223 162 367 45 130 126 460
149 617 12 77 24 146 26 153 5 17 36 11 184 -40z"/>
<path d="M4790 5328 c-63 -32 -87 -73 -95 -161 -4 -39 -5 -227 -3 -417 3 -374
3 -374 61 -429 33 -30 100 -38 150 -18 20 9 130 69 244 135 115 65 268 151
341 192 202 112 244 158 209 227 -30 56 -26 54 -472 306 -255 144 -340 187
-370 187 -12 0 -41 -10 -65 -22z"/>
</g>
</svg>
